<svg width="100" height="100" viewBox="0 0 100 100" fill="none" xmlns="http://www.w3.org/2000/svg">
<g clip-path="url(#clip0)">
<line x1="-58.3536" y1="62.6837" x2="88.6837" y2="-84.3536" stroke="white"/>
<line x1="-55.3536" y1="65.6837" x2="91.6837" y2="-81.3536" stroke="white"/>
<line x1="-52.3536" y1="68.6837" x2="94.6837" y2="-78.3536" stroke="white"/>
<line x1="-49.3536" y1="71.6837" x2="97.6837" y2="-75.3536" stroke="white"/>
<line x1="-46.3536" y1="74.6837" x2="100.684" y2="-72.3536" stroke="white"/>
<line x1="-43.3536" y1="77.6837" x2="103.684" y2="-69.3536" stroke="white"/>
<line x1="-40.3536" y1="80.6837" x2="106.684" y2="-66.3536" stroke="white"/>
<line x1="-37.3536" y1="83.6837" x2="109.684" y2="-63.3535" stroke="white"/>
<line x1="-34.3536" y1="86.6837" x2="112.684" y2="-60.3535" stroke="white"/>
<line x1="-31.3536" y1="89.6837" x2="115.684" y2="-57.3535" stroke="white"/>
<line x1="-28.3536" y1="92.6837" x2="118.684" y2="-54.3535" stroke="white"/>
<line x1="-25.3536" y1="95.6837" x2="121.684" y2="-51.3535" stroke="white"/>
<line x1="-22.3536" y1="98.6837" x2="124.684" y2="-48.3535" stroke="white"/>
<line x1="-19.3536" y1="101.684" x2="127.684" y2="-45.3535" stroke="white"/>
<line x1="-16.3536" y1="104.684" x2="130.684" y2="-42.3535" stroke="white"/>
<line x1="-13.3536" y1="107.684" x2="133.684" y2="-39.3535" stroke="white"/>
<line x1="-10.3536" y1="110.684" x2="136.684" y2="-36.3535" stroke="white"/>
<line x1="-7.35355" y1="113.684" x2="139.684" y2="-33.3535" stroke="white"/>
<line x1="-4.35355" y1="116.684" x2="142.684" y2="-30.3536" stroke="white"/>
<line x1="-1.35355" y1="119.684" x2="145.684" y2="-27.3536" stroke="white"/>
<line x1="1.64645" y1="122.684" x2="148.684" y2="-24.3536" stroke="white"/>
<line x1="4.64645" y1="125.684" x2="151.684" y2="-21.3536" stroke="white"/>
<line x1="7.64645" y1="128.684" x2="154.684" y2="-18.3536" stroke="white"/>
<line x1="10.6464" y1="131.684" x2="157.684" y2="-15.3536" stroke="white"/>
<line x1="13.6464" y1="134.684" x2="160.684" y2="-12.3536" stroke="white"/>
<line x1="16.6464" y1="137.684" x2="163.684" y2="-9.35355" stroke="white"/>
<line x1="19.6464" y1="140.684" x2="166.684" y2="-6.35355" stroke="white"/>
<line x1="22.6464" y1="143.684" x2="169.684" y2="-3.35355" stroke="white"/>
<line x1="25.6464" y1="146.684" x2="172.684" y2="-0.353551" stroke="white"/>
<line x1="28.6464" y1="149.684" x2="175.684" y2="2.64645" stroke="white"/>
<line x1="31.6464" y1="152.684" x2="178.684" y2="5.64645" stroke="white"/>
<line x1="34.6464" y1="155.684" x2="181.684" y2="8.64645" stroke="white"/>
<line x1="37.6464" y1="158.684" x2="184.684" y2="11.6464" stroke="white"/>
<line x1="40.6464" y1="161.684" x2="187.684" y2="14.6464" stroke="white"/>
<line x1="43.6464" y1="164.684" x2="190.684" y2="17.6464" stroke="white"/>
<line x1="46.6464" y1="167.684" x2="193.684" y2="20.6464" stroke="white"/>
</g>
<defs>
<clipPath id="clip0">
<rect width="100" height="100" fill="white"/>
</clipPath>
</defs>
</svg>
