<?xml version="1.0" encoding="iso-8859-1"?>
<!-- Generator: Adobe Illustrator 18.0.0, SVG Export Plug-In . SVG Version: 6.00 Build 0)  -->
<!DOCTYPE svg PUBLIC "-//W3C//DTD SVG 1.1//EN" "http://www.w3.org/Graphics/SVG/1.1/DTD/svg11.dtd">
<svg version="1.1" id="Capa_1" xmlns="http://www.w3.org/2000/svg" xmlns:xlink="http://www.w3.org/1999/xlink" x="0px" y="0px"
	 viewBox="0 0 297 297" style="enable-background:new 0 0 297 297;" xml:space="preserve">
<g>
	<path d="M250.727,0H46.272c-5.391,0-9.762,4.371-9.762,9.763v277.475c0,5.392,4.371,9.763,9.762,9.763h204.455
		c5.391,0,9.762-4.371,9.762-9.763V9.763C260.489,4.371,256.118,0,250.727,0z M240.966,19.524v53.494H56.034V19.524H240.966z
		 M56.034,277.476V92.543h184.932v184.933H56.034z"/>
	<path d="M221.519,103.204h-29.207c-4.851,0-8.785,3.934-8.785,8.785v29.208c0,4.853,3.934,8.786,8.785,8.786h29.207
		c4.854,0,8.787-3.934,8.787-8.786v-29.208C230.306,107.138,226.372,103.204,221.519,103.204z M212.733,132.411h-11.635v-11.636
		h11.635V132.411z"/>
	<path d="M163.105,103.204h-29.209c-4.852,0-8.785,3.934-8.785,8.785v29.208c0,4.853,3.934,8.786,8.785,8.786h29.209
		c4.853,0,8.787-3.934,8.787-8.786v-29.208C171.892,107.138,167.958,103.204,163.105,103.204z M154.319,132.411h-11.637v-11.636
		h11.637V132.411z"/>
	<path d="M104.688,103.204H75.479c-4.852,0-8.785,3.934-8.785,8.785v29.208c0,4.853,3.934,8.786,8.785,8.786h29.209
		c4.852,0,8.785-3.934,8.785-8.786v-29.208C113.474,107.138,109.54,103.204,104.688,103.204z M95.903,132.411H84.267v-11.636h11.637
		V132.411z"/>
	<path d="M221.519,161.62h-29.207c-4.851,0-8.785,3.934-8.785,8.786v87.624c0,4.853,3.934,8.786,8.785,8.786h29.207
		c4.854,0,8.787-3.934,8.787-8.786v-87.624C230.306,165.554,226.372,161.62,221.519,161.62z M212.733,249.244h-11.635v-70.052
		h11.635V249.244z"/>
	<path d="M163.105,161.62h-29.209c-4.852,0-8.785,3.934-8.785,8.786v29.208c0,4.852,3.934,8.785,8.785,8.785h29.209
		c4.853,0,8.787-3.934,8.787-8.785v-29.208C171.892,165.554,167.958,161.62,163.105,161.62z M154.319,190.827h-11.637v-11.635
		h11.637V190.827z"/>
	<path d="M104.688,161.62H75.479c-4.852,0-8.785,3.934-8.785,8.786v29.208c0,4.852,3.934,8.785,8.785,8.785h29.209
		c4.852,0,8.785-3.934,8.785-8.785v-29.208C113.474,165.554,109.54,161.62,104.688,161.62z M95.903,190.827H84.267v-11.635h11.637
		V190.827z"/>
	<path d="M163.105,220.036h-29.209c-4.852,0-8.785,3.934-8.785,8.786v29.208c0,4.853,3.934,8.786,8.785,8.786h29.209
		c4.853,0,8.787-3.934,8.787-8.786v-29.208C171.892,223.97,167.958,220.036,163.105,220.036z M154.319,249.244h-11.637v-11.636
		h11.637V249.244z"/>
	<path d="M104.688,220.036H75.479c-4.852,0-8.785,3.934-8.785,8.786v29.208c0,4.853,3.934,8.786,8.785,8.786h29.209
		c4.852,0,8.785-3.934,8.785-8.786v-29.208C113.474,223.97,109.54,220.036,104.688,220.036z M95.903,249.244H84.267v-11.636h11.637
		V249.244z"/>
</g>
<g>
</g>
<g>
</g>
<g>
</g>
<g>
</g>
<g>
</g>
<g>
</g>
<g>
</g>
<g>
</g>
<g>
</g>
<g>
</g>
<g>
</g>
<g>
</g>
<g>
</g>
<g>
</g>
<g>
</g>
</svg>
