<?xml version="1.0" encoding="iso-8859-1"?>
<!-- Generator: Adobe Illustrator 19.0.0, SVG Export Plug-In . SVG Version: 6.00 Build 0)  -->
<svg xmlns="http://www.w3.org/2000/svg" xmlns:xlink="http://www.w3.org/1999/xlink" version="1.1" id="Layer_1" x="0px" y="0px" viewBox="0 0 512 512" style="enable-background:new 0 0 512 512;" xml:space="preserve" width="512" height="512">
<g>
	<g>
		<g id="XMLID_39_">
			<g>
				<g>
					<path style="fill:#FDEBB5;" d="M221.16,118.44L246,155h-26.5H193l24.84-36.56C218.64,117.27,220.36,117.27,221.16,118.44z"/>
				</g>
				<path style="fill:#5DCBF3;" d="M115.82,70H47.18c-2.58,0-4.68,2.1-4.68,4.68V99v45v45v45v45v45v45v29h17.836H97.5h23V160.29      V130.5V74.68C120.5,72.1,118.4,70,115.82,70z"/>
				<path style="fill:#0AA5DC;" d="M77.472,324v-45v-45v-45v-45V99V74.68c0-2.58,2.1-4.68,4.68-4.68H47.18      c-2.58,0-4.68,2.1-4.68,4.68V99v45v45v45v45v45v45v29h17.836h17.137v-29V324z"/>
				<g>
					<polygon style="fill:#FDCD08;" points="246,318 246,398 193,398 193,155 246,155 246,286.86      "/>
				</g>
				<rect x="219.5" y="155" style="fill:#F6911E;" width="26.5" height="243"/>
				<g>
					<rect x="219.5" y="300.007" style="fill:#FDEBB5;" width="56" height="97.993"/>
				</g>
				<rect x="219.5" y="300.007" style="fill:#FFD788;" width="26.5" height="97.993"/>
				<g>
					<path style="fill:#BB7A58;" d="M504.5,407.19v25.62c0,5.08-4.11,9.19-9.19,9.19H16.69c-5.08,0-9.19-4.11-9.19-9.19v-25.62       c0-5.08,4.11-9.19,9.19-9.19H42.5h55h68H193h26.5h56h192.29h27.52C500.39,398,504.5,402.11,504.5,407.19z"/>
				</g>
				<path style="fill:#AA624F;" d="M47.19,418.553c-5.08,0-9.19-4.11-9.19-9.19V398H16.69c-5.08,0-9.19,4.11-9.19,9.19v25.62      c0,5.08,4.11,9.19,9.19,9.19h478.62c5.08,0,9.19-4.11,9.19-9.19v-14.257H47.19z"/>
				<g>
					<path style="fill:#CACBCB;" d="M470.12,392.28c2.14,2.08,0.66,5.72-2.33,5.72H275.5v-80v-31.14v-75.97       c0-2.95,3.54-4.44,5.66-2.39L470.12,392.28z M308.5,365h86.24l-86.24-83.87V365z"/>
				</g>
				<g>
					<path style="fill:#BEBEBD;" d="M466.464,388.724h-173.78v-80v-31.14v-57.876L281.16,208.5c-2.12-2.05-5.66-0.56-5.66,2.39       v75.97V318v80h192.29c2.99,0,4.47-3.64,2.33-5.72L466.464,388.724z"/>
				</g>
				<path style="fill:#FDCD08;" d="M133.459,153.476c-1.16-0.874-2.758-0.874-3.918,0.001l-9.041,6.814l-23.962,18.046      c-1.197,0.901-1.624,2.502-1.035,3.88L109.5,214.97V253h44v-38.03l13.998-32.754c0.589-1.377,0.161-2.978-1.035-3.88      L133.459,153.476z M131.5,198.5c-5.25,0-9.5-4.25-9.5-9.5s4.25-9.5,9.5-9.5s9.5,4.25,9.5,9.5S136.75,198.5,131.5,198.5z"/>
				<g>
					<path style="fill:#FAAB18;" d="M126.972,197.355C124.01,195.747,122,192.61,122,189c0-0.862,0.125-1.692,0.339-2.486       l-1.837-4.298c-0.589-1.378-0.161-2.979,1.035-3.88l22.465-16.918l-10.543-7.942c-1.16-0.874-2.758-0.874-3.918,0l-9.041,6.814       l-23.962,18.046c-1.197,0.901-1.624,2.502-1.035,3.88L109.5,214.97V253h25v-38.03L126.972,197.355z"/>
				</g>
			</g>
		</g>
		<g>
			<polygon style="fill:#EF5227;" points="165.5,266.807 165.5,398 97.5,398 97.5,266.807 102.5,266.807 160.5,266.807    "/>
		</g>
		<polygon style="fill:#E43A26;" points="102.5,266.807 97.5,266.807 97.5,398 122.5,398 122.5,266.807   "/>
		<g>
			<path style="fill:#E41E28;" d="M160.5,248c6.63,0,12,5.37,12,12c0,3.32-1.34,6.32-3.51,8.49c-2.17,2.17-5.17,3.51-8.49,3.51h-58     c-6.63,0-12-5.37-12-12c0-3.32,1.34-6.32,3.51-8.49c2.17-2.17,5.17-3.51,8.49-3.51h7h44H160.5z"/>
		</g>
		<g>
			<path style="fill:#5DCBF3;" d="M275.5,286.86V318h-56v-31.14c0-9.86,8-17.86,17.86-17.86H246h11.64     C267.5,269,275.5,277,275.5,286.86z"/>
		</g>
		<path style="fill:#0AA5DC;" d="M260.75,269.289c-1.012-0.178-2.047-0.289-3.11-0.289H246h-8.64c-9.86,0-17.86,8-17.86,17.86V318    H246v-31.14C246,278.063,252.374,270.764,260.75,269.289z"/>
	</g>
	<circle cx="131.5" cy="189" r="9.5"/>
	<g>
		<path d="M305.582,274.219c-2.777,1.173-4.582,3.895-4.582,6.909V365c0,4.143,3.358,7.5,7.5,7.5h86.237    c3.052,0,5.8-1.85,6.949-4.678s0.469-6.07-1.72-8.199l-86.237-83.872C311.567,273.648,308.358,273.046,305.582,274.219z     M316,298.885l60.269,58.615H316V298.885z"/>
		<path d="M495.31,390.5H477.8c-0.554-1.324-1.377-2.551-2.454-3.599l-60.666-59.002c-2.969-2.887-7.717-2.823-10.605,0.147    c-2.888,2.97-2.822,7.718,0.147,10.606l53.309,51.847H283V220.756l99.714,96.979c2.969,2.886,7.717,2.822,10.605-0.147    s2.822-7.718-0.147-10.606L286.384,203.124c-3.128-3.042-7.747-3.91-11.768-2.212c-4.02,1.698-6.617,5.615-6.617,9.979v52.823    c-3.165-1.422-6.672-2.214-10.36-2.214h-4.14V155c0-0.057-0.001-0.113-0.002-0.169c0-0.02-0.001-0.04-0.002-0.06    c-0.001-0.037-0.003-0.075-0.004-0.112c-0.001-0.023-0.002-0.046-0.003-0.069c-0.001-0.027-0.003-0.054-0.005-0.08    c-0.004-0.068-0.01-0.135-0.016-0.202c0-0.004-0.001-0.007-0.001-0.011c-0.123-1.316-0.585-2.534-1.299-3.564l-24.807-36.508    c-1.771-2.607-4.709-4.165-7.861-4.165s-6.09,1.558-7.86,4.163l-24.808,36.51c-0.714,1.03-1.176,2.248-1.299,3.564    c0,0.003-0.001,0.007-0.001,0.011c-0.006,0.067-0.011,0.134-0.016,0.202c-0.002,0.026-0.004,0.053-0.005,0.08    c-0.001,0.023-0.002,0.046-0.003,0.069c-0.002,0.037-0.003,0.075-0.004,0.112c-0.001,0.02-0.001,0.04-0.002,0.06    c-0.001,0.057-0.002,0.113-0.002,0.169v235.5H173V274.955c4.276-3.58,7-8.956,7-14.955c0-10.585-8.478-19.228-19-19.494v-24.003    l14.396-33.685c1.356-3.173,0.372-6.861-2.384-8.938l-37-27.871c-2.348-1.77-5.476-1.984-8.013-0.644V74.682    c0-6.717-5.465-12.182-12.182-12.182H47.182C40.465,62.5,35,67.965,35,74.682V390.5H16.69C7.487,390.5,0,397.987,0,407.189v25.621    c0,9.202,7.487,16.689,16.69,16.689h478.62c9.203,0,16.69-7.487,16.69-16.689v-25.621C512,397.987,504.513,390.5,495.31,390.5z     M227,390.5v-65h41v65H227z M268,286.86v23.64h-41v-23.64c0-5.713,4.647-10.36,10.36-10.36h20.28    C263.353,276.5,268,281.147,268,286.86z M237.36,261.5c-3.688,0-7.195,0.792-10.36,2.214V162.5h11.5v99H237.36z M219.5,129.345    l12.336,18.155h-24.673L219.5,129.345z M200.5,162.5H212v228h-11.5V162.5z M165,260c0,2.481-2.019,4.5-4.5,4.5h-58    c-2.481,0-4.5-2.019-4.5-4.5s2.019-4.5,4.5-4.5h58C162.981,255.5,165,257.519,165,260z M159.294,182.326l-12.691,29.694    c-0.398,0.932-0.604,1.935-0.604,2.947V240.5h-29v-25.532c0-1.013-0.205-2.016-0.604-2.947l-12.691-29.694l21.245-16.003    c0.035-0.026,0.069-0.052,0.104-0.078l6.446-4.855L159.294,182.326z M50,376.5h11.5c4.142,0,7.5-3.357,7.5-7.5s-3.358-7.5-7.5-7.5    H50v-30h11.5c4.142,0,7.5-3.357,7.5-7.5s-3.358-7.5-7.5-7.5H50v-30h11.5c4.142,0,7.5-3.357,7.5-7.5s-3.358-7.5-7.5-7.5H50v-30    h11.5c4.142,0,7.5-3.357,7.5-7.5s-3.358-7.5-7.5-7.5H50v-30h11.5c4.142,0,7.5-3.357,7.5-7.5s-3.358-7.5-7.5-7.5H50v-30h11.5    c4.142,0,7.5-3.357,7.5-7.5s-3.358-7.5-7.5-7.5H50v-30h11.5c4.142,0,7.5-3.357,7.5-7.5s-3.358-7.5-7.5-7.5H50v-14h63v79.046    l-23.013,17.335c-2.756,2.076-3.74,5.765-2.384,8.938L102,216.503v24.003c-10.522,0.266-19,8.909-19,19.494    c0,6,2.724,11.375,7,14.955V328c0,4.143,3.358,7.5,7.5,7.5s7.5-3.357,7.5-7.5v-48.5h53v111h-53V358c0-4.143-3.358-7.5-7.5-7.5    S90,353.857,90,358v32.5H50V376.5z M497,432.811c0,0.932-0.758,1.689-1.69,1.689H16.69c-0.932,0-1.69-0.758-1.69-1.689v-25.621    c0-0.932,0.758-1.689,1.69-1.689h478.62c0.932,0,1.69,0.758,1.69,1.689V432.811z"/>
	</g>
</g>















</svg>
